<?xml version="1.0" encoding="UTF-8"?>
<svg version="1.1" viewBox="0 0 2048 763" width="1280" height="1280" xmlns="http://www.w3.org/2000/svg">
<path transform="translate(367,118)" d="m0 0h38l25 5 22 8 23 12 16 12 10 9 13 13 12 16 9 16 7 15 6 17 3 10 2 12 1 3v30l-3 23-7 24-9 25-12 25-12 21-13 20-8 11-10 13-1 4-6 5-4 7-5 5-5 6h-2l-1 3h-2l-2 4-10 11-1 2h-2l-2 4-21 21h-2v2l-16 14h-2v2l-5 4h-12l-12-11-8-7-34-34-9-11-10-11-11-14-12-15-13-19-10-15-12-21-14-29-7-19-7-28-2-11v-44l5-23 6-18 8-17 11-17 7-9 12-13 14-13 21-14 19-9 19-7 19-4zm5 23-18 3-17 5-21 9-13 8-5 4-11 9-13 13-12 17-12 23-5 17-2 13 1 7-1 21-2 4v5l3 2-1 12 6 25 8 21 13 27 9 15 10 16 13 18 14 18 9 11 9 10 7 8 5 6h2l2 4 28 28 6 5 4-1 41-41 9-11 9-10 9-11 8-10 10-14 18-27 10-18 8-15 10-26 6-20 2-9 2-15v-24l-2-15-6-20-6-15-8-15-9-12-9-11-8-8-16-12-16-9-16-7-21-6-13-2z" fill="#F7F7F7"/>
<path transform="translate(288,493)" d="m0 0h10l7 6 1 2v7l-4 6-8 3-17 3-18 3-19 5-17 6-14 6-7 4-1 2h-2v2h-2l-1 4-2 7-2 6 8 7 15 8 22 8 24 6 26 5 31 4 40 3h58l37-3 30-4 26-5 24-6 20-7 17-9 8-6 2-4v-7l-4-6-10-7-17-8-25-8-15-4-9-2-22-3-9-3-4-4-1-9 6-7 2-1h10l24 4 19 4 23 7 22 9 14 8 13 12 6 9 3 10v6l-6 14-10 12-15 9-19 9-18 6-24 6-24 5-40 5-32 2h-67l-39-3-35-5-28-6-25-7-20-8-15-8-9-7-8-8-5-9-1-5v-12l3-9 7-9 10-9 10-6 24-10 17-6 7-2 8-1 1-1 9-1 1-1 10-1 2-1z" fill="#F9F9F9"/>
<path transform="translate(379,199)" d="m0 0h12l11 1 15 5 12 6 9 7 9 8 8 10 7 12 6 16 1 9v19l-3 11 1 3-3 3-4 9-7 12-9 11-10 8-11 7-14 5-6 2-7 1h-20l-15-3-16-7-11-7-11-10-8-11-8-16-4-11-1-11v-13l1-11 6-16 9-16 11-12 10-8 16-8 13-4zm-4 24-16 5-5 3v2l-5 1-8 7-7 9-6 14-2 8v19l4 13 6 12 9 10 8 6 10 5 9 3 24 1 3-2 8-2 12-6 10-9 6-7 7-14 2-7v-25l-4-12-7-12-11-11-12-7-13-4z" fill="#F7F7F7"/>
<path transform="translate(846,374)" d="m0 0h5l1 4 2 37v32l-1 14 5-2 10-8 9-4 6-1h10l13 4 6 4v2h2l5 9 5 16v61h8l5 2v6h-56l-3-1v-6l16-1v-73l-2-10-5-5h-10l-8 4-5 5-6 12-2 6-1 10-1 51h10l5 2v6h-59l-2-1v-5l1-1 16-1 1-159h-15l-5-1v-5l1-1 29-1z" fill="#F5F5F5"/>
<path transform="translate(1288,374)" d="m0 0h8l1 10 1 36v50l1 21 11-9 12-11 8-8 8-7-20-1-1-5 2-2h51l3 3-1 4-23 1-8 6-15 14-5 5 6 8 11 12 9 11 11 12 9 11 6 6 10 2 1 1v6h-61l-1-1v-6l17-1-9-11-10-11-9-11-10-11-2-1 1 6-2 21 1 17 13 2 1 1v5l-1 1h-59l-2-1v-6h18v-160h-15l-3-1v-5l1-1z" fill="#F2F2F2"/>
<path transform="translate(718,374)" d="m0 0h22l13 4 12 7 4 2 6-10 1-1h5l1 1 1 12v26l-1 11-5 1-2-2-5-16-5-10-9-10-12-6-15-2-12 2-8 4-7 8-4 10-2 14v4l-1 10v58l1 21 3 12 5 9v2l16 8 4 1h13l11-4 10-6 8-8 7-12 6-16 1-1h5l1 1v47l-3 5-4-1-8-11-5 1-14 8-11 4-5 1h-17l-13-4-11-6-11-9-8-8-9-13-6-12-5-18-1-13v-10l1-13 5-19 8-16 9-12 12-12 11-7 12-5z" fill="#F2F3F3"/>
<path transform="translate(1e3 446)" d="m0 0h20l12 2 9 5 5 6 4 11 1 9v46l2 14 4-1 6-6 3 1-3 9-7 8-4 2h-14l-8-4-5-6-2-5v-3l-5 3-4 5-11 7-7 3-9 1-11-2-10-5-5-5-5-10v-11l4-8 6-7 10-6 10-4 21-4 15-1-1-21-2-10-4-4-3-1h-17l-8 3-2 4 4 8v6l-5 5-4 2-9-1-5-4-2-4v-7l4-7 7-6 9-4zm12 51-14 3-6 3-5 5-1 5 1 10v7l2 7 5 3h11l9-6 5-6 3-9v-19l-1-3zm-27 16 1 4z" fill="#F4F4F4"/>
<path transform="translate(1442,446)" d="m0 0h20l14 3 9 6 4 7 2 11 2 5-1 39 2 16 1 6 4-1 6-6h2l1 3-5 10-7 6-3 1h-13l-8-4-6-8-2-6-7 6-8 7-11 5-9 1-11-2-10-5-6-7-3-7v-12l4-9 6-7 16-8 18-4 15-2h6l-1-22-2-9-4-4-3-1h-17l-8 3-1 6 2 4v10l-5 4-9 1-5-2-4-4-1-3v-7l3-6 7-6 8-4 11-3zm12 51-14 3-7 4-4 5-2 4 2 16 1 6 6 5h11l8-5 7-8 2-10v-20z" fill="#F4F4F4"/>
<path transform="translate(1722,448)" d="m0 0h30l2 1v6h-17l-2 6-8 17-18 42-13 29-12 26-11 23-8 12-7 6-6 2h-10l-7-4-4-7v-7l2-5 6-4h7l6 4 4 5 5 1 6-8 11-22 7-17-2-5-14-27-10-19-11-22-10-19-3-6-14-1-1-1v-5h62l1 5-1 1h-18l18 35 16 32 3-3 16-36 8-17 5-11h-22v-6z" fill="#EFEFEF"/>
<path transform="translate(1565,420)" d="m0 0 5 1 1 13v13l17 1 3 3-1 4-15 2-2 14v48l2 18 2 6 2 1h7l8-4 6-7 3-5h5l-2 6-6 9-9 6-7 3-12 1-12-2-8-4-5-6-2-5-1-21v-60h-22v-5l3-2h19v-24l2-2z" fill="#F3F3F3"/>
<path transform="translate(1121,446)" d="m0 0 4 1 1 13 1 3 7-10 10-6 3-1h9l8 4 4 4 2 5v8l-4 7-4 3-7 1-7-3-4-5v-16l-6 3-5 8-4 10-1 7v55l-1 5h9l9 1 2 2-1 5h-66l-2-2 1-5h20v-88h-20v-6l12-1 27-1z" fill="#F5F5F5"/>
<path transform="translate(1220,446)" d="m0 0 3 2 2 15 1 79h9l6 2 1 5-1 1h-59l-2-1-1-4 1-2h17l-1-87-15-1-1-1v-5l36-2z" fill="#F3F3F3"/>
<path transform="translate(1319,448)" d="m0 0h51l3 3-1 4-23 1-8 6-15 14-5 5 6 8 11 12 9 11 11 12 9 11 6 6 10 2 1 1v6h-61l-1-1v-6l17-1-9-11-10-11-9-11-7-8-3-5-1-4 5-6 11-9 14-14 8-7-20-1-1-5z" fill="#F2F2F2"/>
<path transform="translate(1147,446)" d="m0 0h9l8 4 4 4 2 5v8l-4 7-4 3-7 1-7-3-4-5v-16l-6 3-5 8-4 10-1 7v55l-1 5h9v1h-12v-54l3-16v-3l-3 1v-24h1l1 13 1 3 7-10 10-6z" fill="#EFEFEF"/>
<path transform="translate(1206,383)" d="m0 0h11l7 6 2 4v8l-1 5-8 5h-10l-5-3-5-6v-11l4-5z" fill="#F4F4F4"/>
<path transform="translate(1295,374)" d="m0 0h1l1 10 1 36v50l1 21h3l-1 4 3 3-1 2-4-3 1 6-2 21 1 17 8 1v1h-12l-1-36z" fill="#929292"/>
<path transform="translate(596,578)" d="m0 0v3l-6 7-15 9-19 9-18 6-24 6-24 5-40 5-32 2h-67l-39-3-16-2v-1h12l6 1 23 2h92l44-4 30-5 25-6 26-8 16-7 14-8z" fill="#929292"/>
<path transform="translate(701,393)" d="m0 0 1 2-4 10-2 14v4l-1 10v58l1 21 3 12 5 9-1 2-4-5-5-12-2-11-2-30v-28l2-27 4-19z" fill="#929292"/>
<path transform="translate(916,461)" d="m0 0 3 4 5 16v61h8v1h-12l-1-3-1-64z" fill="#929292"/>
<path transform="translate(1570,454)" d="m0 0 13 1v1l-8 1-2 14v48l2 18 2 6 2 2-5-1-3-3-2-10v-76z" fill="#929292"/>
<path transform="translate(1043,456)" d="m0 0 3 3 4 11 1 9v46l2 14 3 2h-6l-3-4-1-10-1-64z" fill="#929292"/>
<path transform="translate(249,232)" d="m0 0 1 3-4 14-2 13 1 7-1 21v3l-3 1 1 5 3 2-1 12 6 25 1 6-2-2-6-20-4-23v-27l3-18 6-20z" fill="#929292"/>
<path transform="translate(304,508)" d="m0 0 1 2-4 5-10 3-22 3-26 6-20 7-14 6-7 4-1 2h-2v2h-2l-1 4-2 7-2 6 5 6-4-2-4-5-1-2v-8l7-8 14-9 20-8 24-7 17-4 22-3 9-3z" fill="#929292"/>
<path transform="translate(1222,454)" d="m0 0 2 2 1 7 1 79h9v1h-13z" fill="#929292"/>
<path transform="translate(1488,462)" d="m0 0 2 3 1 8 2 5-1 39 2 16 1 6 3 2-7-1-2-3z" fill="#929292"/>
<path transform="translate(542,227)" d="m0 0 2 2 7 22 2 12 1 3v30l-3 23-7 24-1-4 5-19 2-15v-41l-5-25-3-9z" fill="#929292"/>
<path transform="translate(851,378)" d="m0 0h1l2 37v32l-1 14 5-2 3-3 2 1-8 10-4 4z" fill="#929292"/>
<path transform="translate(1133,461)" d="m0 0 1 2-5 12-1 7v55l-1 5h9v1h-12v-54l3-16z" fill="#929292"/>
<path transform="translate(861,464)" d="m0 0 1 2-5 12-2 13-1 51h10v1h-13v-49l2-13 4-10z" fill="#929292"/>
<path transform="translate(459,245)" d="m0 0 3 3 6 16 1 9v19l-3 11 1 3-3 3-4 9-7 12-3 2 2-4 8-15 5-18v-27l-4-15-2-5z" fill="#929292"/>
<path transform="translate(985,509)" d="m0 0 2 4 1 10v7l3 7 3 2 8 1v1h-9l-6-4-4-7-1-10 2-9zm0 4 1 4z" fill="#929292"/>
<path transform="translate(1429,507)" d="m0 0 1 2-2 4 2 16 1 6 5 5-4-1-6-7-2-8 2-12z" fill="#929292"/>
<path transform="translate(381,221)" d="m0 0 17 1 3 2h-26l-16 5-4 2-1 2-7 2 5-5 12-6 7-2z" fill="#929292"/>
<path transform="translate(1569,423)" d="m0 0h1l1 11v13l17 1v1h-19z" fill="#929292"/>
<path transform="translate(599,541)" d="m0 0 3 3 4 12v6l-6 14-2 1 2-6 2-5 1-10-2-9z" fill="#929292"/>
<path transform="translate(1124,447)" d="m0 0h1l1 13 1 3 3-3-2 6-3 5h-1z" fill="#929292"/>
<path transform="translate(1317,476)" d="m0 0m-1 1m-1 1m-1 1m-2 1 2 1-14 14 1-4 4-5z" fill="#E3E3E3"/>
<path transform="translate(453,488)" d="m0 0v3l-11 12-1 2-2-1 9-11z" fill="#929292"/>
<path transform="translate(1204,384)" d="m0 0 2 1-7 7-1 10h-1v-11l4-5z" fill="#B8B8B8"/>
<path transform="translate(970,502)" d="m0 0 2 1-11 11v-3l5-6z" fill="#ccc"/>
<path transform="translate(329,269)" d="m0 0 2 1-1 4v9h-2l-1-7 1-6z" fill="#929292"/>
<path transform="translate(328,284)" d="m0 0 2 1v7l1 5h-2l-1-3z" fill="#929292"/>
<path transform="translate(330,263)" d="m0 0" fill="#929292"/>
<path transform="translate(243,297)" d="m0 0" fill="#929292"/>
<path transform="translate(1430,531)" d="m0 0" fill="#929292"/>
<path transform="translate(456,488)" d="m0 0" fill="#929292"/>
<path transform="translate(696,425)" d="m0 0" fill="#929292"/>
<path transform="translate(246,318)" d="m0 0" fill="#929292"/>
<path transform="translate(463,313)" d="m0 0" fill="#929292"/>
<path transform="translate(465,308)" d="m0 0" fill="#929292"/>
<path transform="translate(331,262)" d="m0 0" fill="#929292"/>
<path transform="translate(245,260)" d="m0 0" fill="#929292"/>
</svg>
