<?xml version="1.0" encoding="UTF-8"?>
<svg version="1.1" viewBox="0 0 2048 899" width="1280" height="1280" xmlns="http://www.w3.org/2000/svg">
<path transform="translate(339,129)" d="m0 0h37l26 4 23 6 21 8 23 12 16 11 14 11 15 14 9 10 12 16 9 14 11 21 8 22 6 24 2 16v31l-2 17-4 20-9 29-9 24-11 24-9 19-12 22-16 27-15 23-8 12-14 20-8 11-4 6-13 17-24 30-12 14-7 8-11 13-12 13-7 8h-2v2l-4 2-15-16-7-8-10-11-9-11-13-15-9-11-13-16-9-12-10-13-12-17-14-20-15-23-17-28-9-16-14-27-10-21-11-28-8-26-5-21-2-15-1-13v-15l3-28 6-24 8-21 11-21 10-15 11-14 14-15 13-12 18-13 15-9 16-8 17-7 22-6zm0 28-24 4-21 6-23 10-15 8-13 10-10 8-12 11-9 11v2h-2l-12 17-11 21-8 24-3 14v9l-1 15v26l3 21 7 25 7 20 10 23 13 27 12 22 12 20 13 21 15 22 12 17 14 19 14 18 13 16 8 10 11 13 18 21 4-1 7-7 7-8 12-14 9-11 13-16 12-16 26-36 16-24 11-17 12-20 16-29 12-24 8-19 9-25 7-24 4-22 1-12v-18l-2-19-6-25-8-20-9-17-10-14-11-13-15-15-13-10-15-10-17-9-24-9-27-6-9-1z" fill="#090909"/>
<path transform="translate(347,237)" d="m0 0h22l13 2 15 4 16 7 14 9 11 9 10 10 10 14 9 17 6 17 3 18v19l-3 19-7 21-8 15-8 11-2 3h-2l-2 4-9 9-14 10-17 9-18 6-20 3h-17l-18-3-18-6-21-11-11-9-10-9-11-14-9-16-6-17-4-17-1-19 2-19 4-16 7-16 6-11 10-13 14-14 18-12 15-7 13-4 9-2zm-1 28-14 3-13 5-9 5-11 8-11 11-9 14-4 8-4 11-2 9v31l4 16 8 17 9 12 9 9 16 11 11 5 14 4 5 1h26l17-4 16-8 9-6 10-9 8-9 9-15 5-13 3-14v-25l-4-17-8-17-8-11-8-9-13-10-16-8-14-4-5-1z" fill="#0A0A0A"/>
<path transform="translate(249,619)" d="m0 0 3 3 5 17v5l-13 4-21 6-13 5-17 9-4 2-1 3-7 6-3 9 1 10 6 9 12 9 19 9 22 7 27 6 26 4 19 2 18 1h59l20-1 25-3 24-4 26-6 23-8 17-9 10-8 5-8 1-3v-9l-4-8-5-6-11-7-16-8-28-9-16-4-1-3 7-22 17 4 27 9 21 10 12 8 11 9 7 8 5 8 3 9v14l-5 13-11 13-5 4h-2v2l-16 10-16 8-24 9-27 7-34 6-28 3-13 1h-56l-31-3-32-5-30-7-27-9-23-11-15-10-12-11-6-9-4-9-1-4v-11l4-12 8-11 7-7 14-10 19-10 24-9z" fill="#080808"/>
<path transform="translate(838,460)" d="m0 0h5l2 28 1 81 7-8 12-9 10-4 5-1h13l13 4 10 6 6 8 4 11 3 24v59l-1 3 16 1 2 2v6l-1 1-40 1-23-1-8-1v-6l3-2 17-1v-84l-2-16-5-5-3-1h-10l-12 6-7 9-5 11-3 14-1 12-1 54 16 1 3 2 1 6-1 1-15 1h-36l-20-1-3-2v-5l2-2h20v-192h-16l-8-1v-7l13-1 33-1z" fill="#040404"/>
<path transform="translate(684,460)" d="m0 0h24l14 4 12 6 8 6h2l7-12 3-2 5 1 2 20v20l-1 19-2 2h-6l-8-24-6-11-10-11-14-7-8-2h-18l-10 3-9 6-7 10-4 11-2 13-1 20-1 8v60l1 22 4 18 5 10 5 5 9 6 9 3 5 1h12l14-4 11-7 9-8 10-16 6-14 3-8h8v30l-1 31-1 2-6 1-3-3-7-11-4-1-13 8-11 5-14 4h-22l-16-5-13-7-10-8-11-11-11-15-7-15-5-16-2-8v-41l6-23 9-19 10-14 10-11 13-10 14-7z" fill="#0B0B0B"/>
<path transform="translate(1552,547)" d="m0 0h24l16 3 11 6 6 9 2 10 1 42v23l2 15 1 4h5l8-9 3 1-2 9-6 9-8 5-7 1-11-1-8-4-7-8-2-4v-6l-8 7-9 8-12 6-10 2-15-1-10-4-10-9-5-10v-16l5-10 7-8 14-8 17-5 27-4h7l-1-33-3-7-4-3-5-1h-16l-9 2-5 5 4 11v7l-3 5-4 3-4 1h-8l-5-3-5-6-1-8 4-9 5-5 10-6 13-4zm21 61-19 3-12 5-5 6-1 2-1 16h-2l2 10 5 7 5 3 9 1 10-4 10-9 4-10v-30z" fill="#0C0C0D"/>
<path transform="translate(1020,547)" d="m0 0h25l16 3 9 5 5 5 3 5 1 4 1 20 1 62 2 8 7-1 7-8h3l-1 8-7 11-8 5-10 1-9-1-10-6-6-9-2-6-9 9-13 9-8 3-12 1-13-2-10-5-7-6-5-10-1-3v-10l3-10 8-10 10-7 8-4 19-5 30-4v-16l-1-14-3-9-5-3-4-1h-16l-9 2-5 4 1 5 3 7v8l-2 4-9 4h-9l-8-7-2-4v-7l4-8 5-5 10-6 16-5zm23 61-15 2-13 4-6 4-4 5v6l-2 4 1 3-1 3v8l4 8 7 5 8 1 9-3 9-7 5-8 2-8 1-10v-16z" fill="#0E0E0E"/>
<path transform="translate(1370,460)" d="m0 0h7l1 10v192l15 1 4 2 1 6-1 1-34 1-33-1-7-1-1-6 3-2h20v-192h-12l-10-1v-7l7-1 33-1z" fill="#040404"/>
<path transform="translate(1767,550)" d="m0 0h74l1 1v6l-2 1-21 1 12 22 15 30 10 19 5 9 7-15 14-31 15-34-25-1-1-1v-6l1-1h55v7l-3 1h-18l-2 6-10 22-15 35-17 40-14 30-11 24-10 19-8 11-8 7-6 2h-11l-7-3-6-7-1-3v-10l4-6 5-3h10l7 5 3 4v2l5 1 5-4 12-23 12-27v-7l-15-29-8-15-21-42-10-19-4-8v-2h-18l-2-2v-5z" fill="#101010"/>
<path transform="translate(1699,516)" d="m0 0h7l1 1 1 19v13l35 1 1 1v7l-36 1 1 55v22l1 18 3 9 5 2 10-1 9-6 6-9 2-4h6l1 2-6 12-4 5-9 6-11 4-14 1-11-1-12-5-6-8-3-9-1-13v-81h-26l-1-1v-6l1-1h26v-29l3-3z" fill="#090909"/>
<path transform="translate(1168,547)" d="m0 0h3l2 22 7-10 9-8 10-4h9l8 3 8 9 1 3v11l-3 6-5 4-9 2-8-2-5-5-1-3v-18l-7 3-7 11-4 11-2 14-1 66 18 1 6 2 1 6-1 1-46 1-27-1-8-1-1-1v-5l2-2h23v-105h-24l-1-6 1-2 39-1z" fill="#0E0E0E"/>
<path transform="translate(1286,547)" d="m0 0 4 1 2 28v51l1 35 13 1 5 2 1 7-23 1h-28l-21-1-3-1v-7l3-1h19v-105h-21l-1-1v-7l36-1z" fill="#0C0C0C"/>
<path transform="translate(1403,550)" d="m0 0h66l1 1v6l-1 1-30 1-11 10-8 7-10 10-3 2 2 4 9 11 9 10 9 11 9 10 7 8 9 10 7 8v2l13 1 2 2v6l-2 1h-57l-16-1v-7l1-1 19-1-9-11-11-13-9-11-9-10-7-8-4-4 2-4 13-11 7-7 8-7 11-11 7-6-23-1-1-1z" fill="#111"/>
<path transform="translate(1272,470)" d="m0 0 10 1 8 6 3 5v12l-4 6-5 4-2 1h-12l-8-5-5-10 1-8 4-6 5-4z" fill="#0C0C0C"/>
<path transform="translate(796,470)" d="m0 0h18l1 7-1 186-1 1-20 1-1 5 70 1v-5l-15-1-5-2v-40l1-21 2-13 4-10 1 3-3 14-1 12-1 54 16 1 3 2 1 6-1 1-15 1h-36l-20-1-3-2v-5l2-2h20v-192h-16z" fill="#939495"/>
<path transform="translate(544,237)" d="m0 0 3 3 10 21 8 24 4 17 2 16v31l-2 17-4 20-9 29-9 24-11 24-9 19-12 22-16 27-15 23-8 12-14 20-8 11-4 6-13 17-16 20-2 1 2-4 13-17 14-18 24-34 10-15 12-19 15-25 10-18 21-42 11-28 9-27 6-26 2-16v-33l-2-17-6-25-7-20-9-18z" fill="#98999A"/>
<path transform="translate(1333,470)" d="m0 0h14l1 1v188l-1 5-12 1h-11v5l3 1h-4l-1-6 3-2h20v-192h-12z" fill="#ACACAD"/>
<path transform="translate(542,728)" d="m0 0h2v2l-16 10-16 8-24 9-27 7-34 6-28 3-13 1h-56l-31-3-8-1v-1h10l20 2h72l30-3 30-5 28-7 24-8 18-8 18-11z" fill="#A6A6A7"/>
<path transform="translate(849,579)" d="m0 0 1 3-3 14-1 12-1 54 16 1 3 2 1 6-1 1-15 1h-36l-11-1v-1h60v-5l-15-1-5-2v-40l1-21 2-13z" fill="#8D8F90"/>
<path transform="translate(659,490)" d="m0 0 1 3-3 12-1 7-1 20-1 8v60l1 22 3 15-1 3-4-13-3-32v-52l3-30 4-18z" fill="#8E9091"/>
<path transform="translate(838,460)" d="m0 0h5l2 28 1 81 7-8 6-5 2 1-10 10-6 9h-2l-1-10v-105l-2 1h-6z" fill="#929394"/>
<path transform="translate(537,455)" d="m0 0 1 4-11 23-12 22-16 27-15 23-8 12-14 20-8 11-4 6-13 17-16 20-2 1 2-4 13-17 14-18 24-34 10-15 12-19 15-25 10-18 8-16z" fill="#909193"/>
<path transform="translate(198,242)" d="m0 0 1 2-11 21-8 24-3 14v9l-1 15v26l3 21 7 25 4 12-1 3-9-27-6-26-2-14v-28l4-24 6-21 8-18z" fill="#8F9192"/>
<path transform="translate(921,565)" d="m0 0 3 4 3 12 2 19v59l-1 3 16 1v1l-14 1-5-2-1-71-2-21z" fill="#8A8C8E"/>
<path transform="translate(1290,558)" d="m0 0h1l1 18v51l1 35 13 1 5 2 1 7-23 1h-28l-21-1v-1l69-1v-5h-14l-5-1z" fill="#888A8C"/>
<path transform="translate(1743,551)" d="m0 0h1v7l-36 1 1 55v22l1 18 3 9 5 2h10l-3 2h-10l-5-3-3-6-1-6v-95h37z" fill="#909192"/>
<path transform="translate(626,502)" d="m0 0 1 3-4 6-6 15-5 17-2 17v17l2 17 4 15 7 16 9 13 12 13 14 11 12 6-3 1-13-7-10-8-11-11-11-15-7-15-5-16-2-8v-41l6-23 9-19z" fill="#A9AAAB"/>
<path transform="translate(1178,571)" d="m0 0 1 3-4 13-1 9-1 66 18 1 6 2 1 6-1 1-46 1-27-1v-1h72l-1-5-19-1-5-1v-64l2-16z" fill="#919293"/>
<path transform="translate(1765,551)" d="m0 0h2l1 5 18 1 8 16 18 35 15 29 10 19 9 17 1 5-12 25-1-3 9-20v-7l-15-29-8-15-21-42-10-19-4-8v-2h-18l-2-2z" fill="#AFB0B0"/>
<path transform="translate(1605,560)" d="m0 0 3 3 3 12 1 42v23l2 15 1 4h5l5-4-2 4-3 3h-6l-4-4-1-5-1-79-2-10z" fill="#8F9092"/>
<path transform="translate(1649,557)" d="m0 0h28l1 1v85l1 12 4 8-1 2-4-6-2-7-1-13v-81h-26z" fill="#A4A5A7"/>
<path transform="translate(1377,470)" d="m0 0h1v192l15 1 3 2h-16l-4-2z" fill="#898B8D"/>
<path transform="translate(889,557)" d="m0 0 4 2 3 5 1 25v35l-1 40-19 1v5l2 1h-5v-6l3-2 17-1v-84l-2-16z" fill="#979898"/>
<path transform="translate(287,297)" d="m0 0v3l-7 11-4 8-4 11-2 9v31l4 16-1 3-5-15-2-12v-15l3-16 6-16 9-15z" fill="#909293"/>
<path transform="translate(1076,563)" d="m0 0 2 2 1 4 1 20 1 62 1 8-3-2-1-13-1-74z" fill="#888A8C"/>
<path transform="translate(254,632)" d="m0 0 2 3 1 9-13 4-21 6-13 5-17 9-4 2-1 3-7 5 2-4 10-9 16-8 18-7 22-6 5-1z" fill="#BBBCBD"/>
<path transform="translate(354,263)" d="m0 0 19 1 9 2v1l-10-1h-26l-14 3-13 5-9 5-11 8-10 10v-3l11-11 15-10 14-6 13-3z" fill="#AAABAC"/>
<path transform="translate(626,502)" d="m0 0 1 3-4 6-6 15-5 17-2 17v28h-1l-1-9v-31l6-23 9-19z" fill="#909293"/>
<path transform="translate(1292,663)" d="m0 0h14l5 2 1 7-23 1h-28l-21-1v-1l69-1v-5h-14z" fill="#999A9C"/>
<path transform="translate(198,242)" d="m0 0 1 2-11 21-8 24-3 14v9l-1 8-3-1v-8l5-24 6-18 10-21z" fill="#929394"/>
<path transform="translate(758,463)" d="m0 0h1l2 20v20l-1 19-2 1z" fill="#939495"/>
<path transform="translate(849,579)" d="m0 0 1 3-3 14-2 25-1 37h-1v-56l2-13z" fill="#969697"/>
<path transform="translate(921,565)" d="m0 0 3 4 3 12 2 19v10l-3 3h-1l-2-36z" fill="#888A8C"/>
<path transform="translate(465,578)" d="m0 0 2 1-7 10-7 9-3 5-13 17-16 20-2 1 2-4 13-17 14-18 12-17z" fill="#B2B2B3"/>
<path transform="translate(1830,647)" d="m0 0 3 1 12 24 2 2-1 6-11 23-1-3 9-20v-7l-13-25z" fill="#B0B1B1"/>
<path transform="translate(173,347)" d="m0 0 2 3 2 12 4 20 8 26 1 6-2-2-8-25-6-26z" fill="#999A9B"/>
<path transform="translate(542,728)" d="m0 0h2v2l-16 10-16 8-10 4h-6l3-2 15-6 16-8z" fill="#B3B3B4"/>
<path transform="translate(561,672)" d="m0 0 3 3 3 9v14l-5 13-11 13-5 4-2-1 9-8 7-10 4-10 1-12-2-8z" fill="#B2B2B3"/>
<path transform="translate(287,297)" d="m0 0v3l-7 11-4 8-4 11-2 9v8l-3-1 1-11 5-15 7-14z" fill="#919293"/>
<path transform="translate(1536,622)" d="m0 0 1 2-1 18-1-2h-2l4 12v3l-4-6-1-3v-15l3-8z" fill="#989899"/>
<path transform="translate(1578,608)" d="m0 0 3 1-1 26-3 10-2 1 2-8z" fill="#AAABAC"/>
<path transform="translate(1708,636)" d="m0 0h1l1 18 3 9 5 2h10l-3 2h-10l-5-3-3-6-1-9h2z" fill="#8B8D8F"/>
<path transform="translate(566,297)" d="m0 0h2l3 21v31h-1l-1-28-1-2-2-17z" fill="#979798"/>
<path transform="translate(1e3 623)" d="m0 0 2 4-2 6 1 3-1 3v8l3 6-1 2-5-8v-17z" fill="#8B8C8E"/>
<path transform="translate(1418,648)" d="m0 0 7 6 6 7v3l-22 1v5l2 1h-3v-7l1-1 19-1-9-11z" fill="#A9A9AA"/>
<path transform="translate(516,497)" d="m0 0 1 4-15 25-2 3-2-1 15-26z" fill="#8A8C8E"/>
<path transform="translate(1610,644)" d="m0 0h1v6h2l2 9h5l5-4-2 4-3 3h-6l-4-4z" fill="#919394"/>
<path transform="translate(1787,723)" d="m0 0 2 1-6 6-1 8 2 7 7 6 3 2-6-1-7-8-1-3v-10l4-6z" fill="#9FA0A0"/>
<path transform="translate(921,565)" d="m0 0 3 4 2 7v19l-2-3-2-21z" fill="#939495"/>
<path transform="translate(1265,473)" d="m0 0 2 1-6 7-1 6 2 9 3 5-3-1-5-10 1-8 4-6z" fill="#BABBBC"/>
<path transform="translate(1171,558)" d="m0 0h1l1 11 7-10 2-1-2 5-5 8-2 5h-2z" fill="#A8A9AA"/>
<path transform="translate(437,616)" d="m0 0 1 3-9 11-8 10-2 1 2-4 13-17z" fill="#AFB0B1"/>
<path transform="translate(173,651)" d="m0 0 2 1-18 18v-3l9-10z" fill="#6B6C6D"/>
<path transform="translate(1519,558)" d="m0 0 2 1-7 7-2 6v7l1 5-3-3-1-8 4-9 5-5z" fill="#969798"/>
<path transform="translate(889,557)" d="m0 0 4 2 3 5v14h-2l-2-16z" fill="#A1A2A3"/>
<path transform="translate(1292,663)" d="m0 0h14l5 2 1 7h-3v-7h-14z" fill="#959697"/>
<path transform="translate(272,324)" d="m0 0 1 3-3 12v8l-3-1 1-11 3-10z" fill="#929394"/>
<path transform="translate(1388,595)" d="m0 0 2 1-7 7 1 4 5 5-1 2-9-9 2-4z" fill="#A6A7A8"/>
<path transform="translate(649,476)" d="m0 0 2 1-18 18v-3l10-11z" fill="#838484"/>
<path transform="translate(561,708)" d="m0 0 1 3-11 13-5 4-2-1 9-8z" fill="#BDBDBE"/>
<path transform="translate(198,662)" d="m0 0h2l-1 3-7 4-3 1-1 3-7 5 2-4 10-9z" fill="#BABABA"/>
<path transform="translate(542,728)" d="m0 0h2v2l-16 10h-2v-2l15-9z" fill="#BBBBBC"/>
<path transform="translate(859,556)" d="m0 0 2 1-10 10-3 5h-2l1-5 5-5z" fill="#B6B7B8"/>
<path transform="translate(267,365)" d="m0 0 3 3 2 12 2 9-2-2-5-17z" fill="#979899"/>
<path transform="translate(844,601)" d="m0 0h1l1 7-1 9-2 1v-16z" fill="#919293"/>
<path transform="translate(875,664)" d="m0 0h7v1h-5v5l2 1h-5v-6z" fill="#989A9B"/>
<path transform="translate(1047,650)" d="m0 0 2 1 5 12-1 2-5-8z" fill="#B0B1B1"/>
<path transform="translate(175,310)" d="m0 0h2l-1 10-3-1v-8z" fill="#8E9091"/>
<path transform="translate(1535,627)" d="m0 0h1v15l-3-4z" fill="#888A8C"/>
<path transform="translate(616,524)" d="m0 0 1 2-4 10-2 1 3-12z" fill="#969798"/>
<path transform="translate(179,688)" d="m0 0 2 2h-2z" fill="#888A8C"/>
<path transform="translate(1e3 630)" d="m0 0" fill="#888A8C"/>
<path transform="translate(179,685)" d="m0 0" fill="#888A8C"/>
<path transform="translate(182,681)" d="m0 0" fill="#888A8C"/>
<path transform="translate(1537,625)" d="m0 0" fill="#888A8C"/>
<path transform="translate(270,360)" d="m0 0" fill="#888A8C"/>
</svg>
